<svg width="18" height="19" viewBox="0 0 18 19" fill="none" xmlns="http://www.w3.org/2000/svg">
<path d="M9 4.93286V7.48365" stroke="#333333" stroke-miterlimit="10" stroke-linecap="round"/>
<path d="M9.01505 1.53125C6.25505 1.53125 4.02005 3.81394 4.02005 6.63283V8.24144C4.02005 8.76232 3.81005 9.54364 3.54755 9.98792L2.59505 11.6118C2.01005 12.6153 2.41505 13.7337 3.49505 14.1014C7.08005 15.3193 10.9575 15.3193 14.5425 14.1014C15.555 13.7567 15.99 12.5464 15.4425 11.6118L14.49 9.98792C14.2275 9.54364 14.0175 8.75466 14.0175 8.24144V6.63283C14.01 3.82926 11.76 1.53125 9.01505 1.53125Z" stroke="#333333" stroke-miterlimit="10" stroke-linecap="round"/>
<path d="M11.4974 14.4159C11.4974 15.8177 10.3724 16.9667 8.99994 16.9667C8.31744 16.9667 7.68744 16.6756 7.23744 16.216C6.78744 15.7564 6.50244 15.113 6.50244 14.4159" stroke="#333333" stroke-miterlimit="10"/>
</svg>
